<svg xmlns="http://www.w3.org/2000/svg" viewBox="0 0 600 330" font-family="-apple-system,BlinkMacSystemFont,Segoe UI,Roboto,Helvetica,Arial,sans-serif" role="img" aria-label="flint vs baseline output reduction, claude-haiku-4-5"><style>.lbl{fill:#6b7280;font-size:13px}.sub{fill:#6b7280;font-size:13px;font-weight:700}.val{fill:#9aa0a6;font-size:12px}.fv{fill:#d4500f;font-size:12px;font-weight:700}.cap{fill:#9aa0a6;font-size:11px}</style>
<text x="20" y="24" class="sub" font-size="15">flint vs baseline · claude-haiku-4-5 · n=20 median</text>
<text x="20" y="42" class="cap">grey = baseline (no skill) · orange = flint · every arm passed every gate</text>
<text x="20" y="72" class="sub">Prose · output tokens</text>
<text x="148" y="93" text-anchor="end" class="lbl">react-rerender</text><rect x="158" y="82" width="366" height="14" rx="3" fill="#b4b9c0"/><rect x="158" y="82" width="230" height="14" rx="3" fill="#d4500f"/><text x="530" y="93" class="val">474 → <tspan class="fv">297</tspan></text>
<text x="148" y="115" text-anchor="end" class="lbl">conn-pool</text><rect x="158" y="104" width="302" height="14" rx="3" fill="#b4b9c0"/><rect x="158" y="104" width="204" height="14" rx="3" fill="#d4500f"/><text x="466" y="115" class="val">391 → <tspan class="fv">263</tspan></text>
<text x="148" y="137" text-anchor="end" class="lbl">index-scan</text><rect x="158" y="126" width="380" height="14" rx="3" fill="#b4b9c0"/><rect x="158" y="126" width="258" height="14" rx="3" fill="#d4500f"/><text x="544" y="137" class="val">491 → <tspan class="fv">333</tspan></text>
<text x="20" y="162" class="sub">Code · lines of code</text>
<text x="148" y="179" text-anchor="end" class="lbl">email-validate</text><rect x="158" y="168" width="124" height="14" rx="3" fill="#b4b9c0"/><rect x="158" y="168" width="47" height="14" rx="3" fill="#d4500f"/><text x="288" y="179" class="val">8 → <tspan class="fv">3</tspan></text>
<text x="148" y="201" text-anchor="end" class="lbl">slugify</text><rect x="158" y="190" width="202" height="14" rx="3" fill="#b4b9c0"/><rect x="158" y="190" width="147" height="14" rx="3" fill="#d4500f"/><text x="366" y="201" class="val">13 → <tspan class="fv">10</tspan></text>
<text x="148" y="223" text-anchor="end" class="lbl">csv-sum</text><rect x="158" y="212" width="364" height="14" rx="3" fill="#b4b9c0"/><rect x="158" y="212" width="124" height="14" rx="3" fill="#d4500f"/><text x="528" y="223" class="val">24 → <tspan class="fv">8</tspan></text>
<text x="148" y="245" text-anchor="end" class="lbl">date-input</text><rect x="158" y="234" width="380" height="14" rx="3" fill="#b4b9c0"/><rect x="158" y="234" width="31" height="14" rx="3" fill="#d4500f"/><text x="544" y="245" class="val">25 → <tspan class="fv">2</tspan></text>
<line x1="20" y1="262" x2="580" y2="262" stroke="#e6e1d8" stroke-width="1"/>
<text x="20" y="288" class="sub" font-size="14">prose <tspan fill="#d4500f">−33%</tspan> tokens · code <tspan fill="#d4500f">−64%</tspan> lines · significant (Mann-Whitney p&lt;0.05, all 7 tasks)</text>
<text x="20" y="308" class="cap">size = tiktoken tokens / lines of the final answer. snapshot committed; regenerate with benchmarks/charts.mjs</text></svg>